<svg width="34" height="34" viewBox="0 0 34 34" fill="none" xmlns="http://www.w3.org/2000/svg">
<g id="Loader bar">
<path id="Ellipse 375" d="M34 17C34 26.3888 26.3888 34 17 34C7.61116 34 0 26.3888 0 17C0 7.61116 7.61116 0 17 0C26.3888 0 34 7.61116 34 17ZM3.16179 17C3.16179 24.6426 9.35737 30.8382 17 30.8382C24.6426 30.8382 30.8382 24.6426 30.8382 17C30.8382 9.35737 24.6426 3.16179 17 3.16179C9.35737 3.16179 3.16179 9.35737 3.16179 17Z" fill="#808080"/>
<path id="Ellipse 376" d="M17 0C14.7675 -2.6622e-08 12.5569 0.439718 10.4944 1.29405C8.43185 2.14838 6.55778 3.40059 4.97918 4.97918C3.40059 6.55778 2.14838 8.43185 1.29405 10.4944C0.439718 12.5569 -7.09625e-08 14.7675 0 17C7.09625e-08 19.2325 0.439718 21.4431 1.29405 23.5056C2.14838 25.5682 3.40059 27.4422 4.97919 29.0208C6.55778 30.5994 8.43185 31.8516 10.4944 32.706C12.5569 33.5603 14.7675 34 17 34L17 30.8382C15.1827 30.8382 13.3833 30.4803 11.7043 29.7848C10.0254 29.0894 8.4999 28.0701 7.21491 26.7851C5.92991 25.5001 4.91059 23.9746 4.21516 22.2957C3.51972 20.6167 3.16179 18.8173 3.16179 17C3.16179 15.1827 3.51972 13.3833 4.21516 11.7043C4.91059 10.0254 5.92991 8.4999 7.21491 7.21491C8.4999 5.92991 10.0254 4.91059 11.7043 4.21516C13.3833 3.51972 15.1827 3.16179 17 3.16179L17 0Z" fill="#62A1EA"/>
</g>
</svg>
